<svg width="1280" height="720" viewBox="0 0 1280 720" fill="none" xmlns="http://www.w3.org/2000/svg">
<rect width="1280" height="720" fill="black"/>
<path d="M428.794 420.629L394.498 448.187H607.021L569.299 408.037L601.399 366.075H564.854C615.926 346.926 612.222 309.889 552.485 305.335L532.592 271C519.63 295.074 484.444 293.222 469.275 282.277L458.166 309.889C401.111 326.556 406.68 356.514 428.794 366.075H390L428.794 420.629Z" fill="white"/>
<path d="M442.327 371.211C449.57 375.25 468.369 379.465 489.224 380.322C507.198 381.06 526.699 379.304 541.643 372.789C531.472 388.713 506.601 403.357 489.224 380.322C480.541 393.324 455.217 394.556 442.327 371.211Z" fill="black"/>
<path fill-rule="evenodd" clip-rule="evenodd" d="M440.885 369.762L442.601 370.719C446.144 372.696 452.585 374.746 460.783 376.409C468.965 378.069 478.849 379.333 489.247 379.76C507.185 380.497 526.587 378.739 541.418 372.274L543.111 371.536L542.117 373.092C536.975 381.143 528.111 388.888 518.291 391.706C513.371 393.117 508.198 393.295 503.14 391.636C498.259 390.036 493.525 386.741 489.245 381.273C479.894 394.092 454.671 394.731 441.835 371.482L440.885 369.762ZM490.408 380.93C494.496 386.038 498.955 389.081 503.49 390.568C508.3 392.145 513.239 391.985 517.981 390.625C526.859 388.077 534.999 381.329 540.132 374.032C525.667 379.86 507.396 381.519 490.408 380.93ZM488.167 380.839C479.473 392.344 456.439 393.435 443.759 372.562C447.614 374.335 453.477 376.074 460.559 377.511C468.529 379.128 478.089 380.37 488.167 380.839Z" fill="white"/>
<path d="M684.768 394.995C676.226 394.995 669.459 392.486 664.468 387.467L670.011 379.796C674.138 384.057 679.225 386.188 685.272 386.188C687.912 386.188 689.951 385.691 691.391 384.697C692.879 383.655 693.623 382.4 693.623 380.932C693.623 379.654 692.927 378.588 691.535 377.736C690.191 376.884 688.488 376.268 686.424 375.89C684.408 375.511 682.201 374.966 679.801 374.256C677.402 373.546 675.17 372.741 673.107 371.841C671.091 370.941 669.387 369.521 667.996 367.58C666.652 365.638 665.98 363.271 665.98 360.477C665.98 356.405 667.636 352.996 670.947 350.25C674.258 347.456 678.674 346.059 684.192 346.059C691.823 346.059 698.062 348.261 702.909 352.664L697.222 360.051C693.431 356.594 688.776 354.866 683.257 354.866C681.097 354.866 679.417 355.292 678.218 356.145C677.018 356.997 676.418 358.157 676.418 359.625C676.418 360.761 677.09 361.732 678.434 362.537C679.825 363.294 681.529 363.863 683.545 364.241C685.608 364.62 687.816 365.188 690.167 365.946C692.567 366.656 694.774 367.485 696.79 368.432C698.854 369.332 700.557 370.776 701.901 372.764C703.293 374.706 703.989 377.05 703.989 379.796C703.989 384.341 702.333 388.011 699.022 390.805C695.758 393.598 691.007 394.995 684.768 394.995Z" fill="white"/>
<path d="M723.181 394.995C720.157 394.995 717.254 394.522 714.471 393.575C711.735 392.628 709.456 391.326 707.632 389.668L711.591 383.347C712.935 384.578 714.759 385.667 717.062 386.614C719.366 387.561 721.549 388.035 723.613 388.035C725.532 388.035 726.972 387.703 727.932 387.04C728.94 386.378 729.444 385.478 729.444 384.341C729.444 383.489 728.916 382.803 727.86 382.282C726.852 381.714 725.58 381.311 724.045 381.074C722.557 380.838 720.901 380.482 719.078 380.009C717.302 379.535 715.646 378.967 714.111 378.304C712.623 377.641 711.351 376.6 710.295 375.179C709.288 373.711 708.784 371.912 708.784 369.781C708.784 366.751 710.055 364.194 712.599 362.111C715.142 360.027 718.622 358.986 723.037 358.986C728.412 358.986 733.091 360.548 737.074 363.673L733.403 369.852C732.299 368.716 730.811 367.769 728.94 367.011C727.116 366.254 725.173 365.875 723.109 365.875C721.477 365.875 720.157 366.206 719.15 366.869C718.142 367.485 717.638 368.29 717.638 369.284C717.638 370.042 718.142 370.681 719.15 371.202C720.157 371.675 721.429 372.031 722.965 372.267C724.501 372.504 726.156 372.883 727.932 373.404C729.708 373.877 731.363 374.469 732.899 375.179C734.435 375.842 735.706 376.931 736.714 378.446C737.722 379.962 738.226 381.808 738.226 383.986C738.226 387.206 736.882 389.858 734.195 391.941C731.555 393.977 727.884 394.995 723.181 394.995Z" fill="white"/>
<path d="M757.487 394.995C754.463 394.995 751.56 394.522 748.776 393.575C746.041 392.628 743.761 391.326 741.938 389.668L745.897 383.347C747.241 384.578 749.064 385.667 751.368 386.614C753.672 387.561 755.855 388.035 757.919 388.035C759.838 388.035 761.278 387.703 762.238 387.04C763.246 386.378 763.75 385.478 763.75 384.341C763.75 383.489 763.222 382.803 762.166 382.282C761.158 381.714 759.886 381.311 758.351 381.074C756.863 380.838 755.207 380.482 753.384 380.009C751.608 379.535 749.952 378.967 748.417 378.304C746.929 377.641 745.657 376.6 744.601 375.179C743.593 373.711 743.09 371.912 743.09 369.781C743.09 366.751 744.361 364.194 746.905 362.111C749.448 360.027 752.928 358.986 757.343 358.986C762.718 358.986 767.397 360.548 771.38 363.673L767.709 369.852C766.605 368.716 765.117 367.769 763.246 367.011C761.422 366.254 759.478 365.875 757.415 365.875C755.783 365.875 754.463 366.206 753.456 366.869C752.448 367.485 751.944 368.29 751.944 369.284C751.944 370.042 752.448 370.681 753.456 371.202C754.463 371.675 755.735 372.031 757.271 372.267C758.807 372.504 760.462 372.883 762.238 373.404C764.014 373.877 765.669 374.469 767.205 375.179C768.741 375.842 770.012 376.931 771.02 378.446C772.028 379.962 772.532 381.808 772.532 383.986C772.532 387.206 771.188 389.858 768.501 391.941C765.861 393.977 762.19 394.995 757.487 394.995Z" fill="white"/>
<path d="M795.52 394.143H785.226V355.647H771.189V346.769H809.486V355.647H795.52V394.143Z" fill="white"/>
<path d="M846.561 394.143H816.039V346.769H826.261V385.265H846.561V394.143Z" fill="white"/>
<path d="M870.78 394.995C862.237 394.995 855.471 392.486 850.48 387.467L856.022 379.796C860.15 384.057 865.237 386.188 871.284 386.188C873.923 386.188 875.963 385.691 877.402 384.697C878.89 383.655 879.634 382.4 879.634 380.932C879.634 379.654 878.938 378.588 877.546 377.736C876.203 376.884 874.499 376.268 872.435 375.89C870.42 375.511 868.212 374.966 865.813 374.256C863.413 373.546 861.181 372.741 859.118 371.841C857.102 370.941 855.399 369.521 854.007 367.58C852.663 365.638 851.991 363.271 851.991 360.477C851.991 356.405 853.647 352.996 856.958 350.25C860.27 347.456 864.685 346.059 870.204 346.059C877.834 346.059 884.073 348.261 888.92 352.664L883.233 360.051C879.442 356.594 874.787 354.866 869.268 354.866C867.108 354.866 865.429 355.292 864.229 356.145C863.029 356.997 862.429 358.157 862.429 359.625C862.429 360.761 863.101 361.732 864.445 362.537C865.837 363.294 867.54 363.863 869.556 364.241C871.619 364.62 873.827 365.188 876.179 365.946C878.578 366.656 880.786 367.485 882.801 368.432C884.865 369.332 886.569 370.776 887.912 372.764C889.304 374.706 890 377.05 890 379.796C890 384.341 888.344 388.011 885.033 390.805C881.77 393.598 877.018 394.995 870.78 394.995Z" fill="white"/>
</svg>
